<svg width="292" height="254" viewBox="0 0 292 254" fill="none" xmlns="http://www.w3.org/2000/svg">
<g opacity="0.8">
<path d="M46.917 26.5931C46.917 24.1079 48.9317 22.0931 51.417 22.0931H249.008C251.494 22.0931 253.508 24.1079 253.508 26.5931V116.314C253.508 118.8 251.494 120.814 249.008 120.814H182.755C181.338 120.814 180.005 120.148 179.155 119.014L158.85 91.9414C155.05 86.8748 147.45 86.8747 143.65 91.9414L123.345 119.014C122.495 120.148 121.162 120.814 119.745 120.814H51.417C48.9317 120.814 46.917 118.8 46.917 116.314V26.5931Z" stroke="#F5F5F5" stroke-width="5"/>
<path d="M52.7227 23.6422V13C52.7227 7.47716 57.1998 3 62.7227 3H237.719C243.242 3 247.719 7.47715 247.719 13V23.6422" stroke="#F5F5F5" stroke-width="5"/>
<circle cx="101.464" cy="70.4186" r="19.2815" stroke="#F5F5F5" stroke-width="5"/>
<circle cx="198.963" cy="70.4186" r="19.2815" stroke="#F5F5F5" stroke-width="5"/>
<path d="M3 126.276L22.6942 123.318L26.6689 141.048M82.8824 183.144C35.3517 175.6 12.8631 160.317 12.8631 141.048C12.8631 134.783 16.3526 128.8 22.6963 123.318M223.909 183.144C267.284 175.094 289 159.262 289 141.048C289 134.783 285.51 128.8 279.167 123.318" stroke="#F5F5F5" stroke-width="5" stroke-linecap="round" stroke-linejoin="round"/>
<path d="M116.378 202.117C114.278 202.117 112.444 201.867 110.878 201.367C109.311 200.834 107.994 200.134 106.928 199.267C105.861 198.401 105.044 197.451 104.478 196.417C103.944 195.384 103.661 194.317 103.628 193.217C103.628 192.917 103.728 192.684 103.928 192.517C104.128 192.351 104.378 192.267 104.678 192.267H107.128C107.428 192.267 107.694 192.334 107.928 192.467C108.161 192.601 108.361 192.884 108.528 193.317C108.861 194.517 109.428 195.451 110.228 196.117C111.061 196.784 112.011 197.251 113.078 197.517C114.178 197.751 115.278 197.867 116.378 197.867C118.678 197.867 120.544 197.317 121.978 196.217C123.411 195.117 124.128 193.501 124.128 191.367C124.128 189.201 123.478 187.651 122.178 186.717C120.878 185.784 119.078 185.317 116.778 185.317H112.028C111.694 185.317 111.411 185.217 111.178 185.017C110.978 184.817 110.878 184.534 110.878 184.167V182.817C110.878 182.517 110.928 182.267 111.028 182.067C111.161 181.834 111.294 181.634 111.428 181.467L121.128 170.867H106.378C106.044 170.867 105.761 170.767 105.528 170.567C105.328 170.367 105.228 170.084 105.228 169.717V167.817C105.228 167.451 105.328 167.167 105.528 166.967C105.761 166.734 106.044 166.617 106.378 166.617H126.328C126.694 166.617 126.978 166.734 127.178 166.967C127.411 167.167 127.528 167.451 127.528 167.817V169.617C127.528 169.851 127.461 170.067 127.328 170.267C127.228 170.434 127.111 170.601 126.978 170.767L117.328 181.517L118.128 181.567C120.328 181.634 122.244 182.034 123.878 182.767C125.544 183.501 126.828 184.601 127.728 186.067C128.661 187.501 129.128 189.317 129.128 191.517C129.128 193.751 128.578 195.667 127.478 197.267C126.378 198.834 124.861 200.034 122.928 200.867C120.994 201.701 118.811 202.117 116.378 202.117ZM147.407 202.117C144.64 202.117 142.29 201.567 140.357 200.467C138.424 199.334 136.94 197.867 135.907 196.067C134.907 194.234 134.407 192.251 134.407 190.117C134.407 189.117 134.524 188.167 134.757 187.267C135.024 186.334 135.34 185.467 135.707 184.667C136.107 183.834 136.49 183.101 136.857 182.467C137.257 181.801 137.607 181.267 137.907 180.867L147.407 167.617C147.574 167.451 147.774 167.251 148.007 167.017C148.24 166.751 148.59 166.617 149.057 166.617H151.707C152.007 166.617 152.24 166.734 152.407 166.967C152.607 167.167 152.707 167.417 152.707 167.717C152.707 167.851 152.69 167.984 152.657 168.117C152.624 168.217 152.574 168.301 152.507 168.367L145.207 178.567C145.607 178.434 146.057 178.351 146.557 178.317C147.09 178.251 147.59 178.217 148.057 178.217C149.89 178.251 151.557 178.584 153.057 179.217C154.557 179.851 155.84 180.717 156.907 181.817C158.007 182.884 158.84 184.134 159.407 185.567C159.974 186.967 160.257 188.467 160.257 190.067C160.257 192.167 159.757 194.134 158.757 195.967C157.757 197.801 156.29 199.284 154.357 200.417C152.457 201.551 150.14 202.117 147.407 202.117ZM147.357 197.867C148.757 197.867 150.057 197.567 151.257 196.967C152.457 196.367 153.424 195.501 154.157 194.367C154.924 193.201 155.307 191.784 155.307 190.117C155.307 188.417 154.94 187.001 154.207 185.867C153.474 184.701 152.49 183.834 151.257 183.267C150.057 182.667 148.757 182.367 147.357 182.367C145.957 182.367 144.657 182.667 143.457 183.267C142.257 183.834 141.274 184.701 140.507 185.867C139.774 187.001 139.407 188.417 139.407 190.117C139.407 191.784 139.774 193.201 140.507 194.367C141.274 195.501 142.257 196.367 143.457 196.967C144.657 197.567 145.957 197.867 147.357 197.867ZM178.484 202.117C176.184 202.117 174.234 201.767 172.634 201.067C171.067 200.334 169.784 199.334 168.784 198.067C167.784 196.801 167.051 195.351 166.584 193.717C166.151 192.084 165.901 190.351 165.834 188.517C165.801 187.617 165.767 186.667 165.734 185.667C165.734 184.667 165.734 183.667 165.734 182.667C165.767 181.634 165.801 180.651 165.834 179.717C165.867 177.884 166.117 176.151 166.584 174.517C167.084 172.851 167.817 171.401 168.784 170.167C169.784 168.901 171.084 167.917 172.684 167.217C174.284 166.484 176.217 166.117 178.484 166.117C180.784 166.117 182.717 166.484 184.284 167.217C185.884 167.917 187.184 168.901 188.184 170.167C189.184 171.401 189.917 172.851 190.384 174.517C190.884 176.151 191.151 177.884 191.184 179.717C191.217 180.651 191.234 181.634 191.234 182.667C191.267 183.667 191.267 184.667 191.234 185.667C191.234 186.667 191.217 187.617 191.184 188.517C191.151 190.351 190.884 192.084 190.384 193.717C189.917 195.351 189.184 196.801 188.184 198.067C187.217 199.334 185.934 200.334 184.334 201.067C182.767 201.767 180.817 202.117 178.484 202.117ZM178.484 197.867C181.084 197.867 183.001 197.017 184.234 195.317C185.501 193.584 186.151 191.234 186.184 188.267C186.251 187.301 186.284 186.367 186.284 185.467C186.284 184.534 186.284 183.617 186.284 182.717C186.284 181.784 186.251 180.867 186.184 179.967C186.151 177.067 185.501 174.751 184.234 173.017C183.001 171.251 181.084 170.367 178.484 170.367C175.917 170.367 174.001 171.251 172.734 173.017C171.501 174.751 170.851 177.067 170.784 179.967C170.784 180.867 170.767 181.784 170.734 182.717C170.734 183.617 170.734 184.534 170.734 185.467C170.767 186.367 170.784 187.301 170.784 188.267C170.851 191.234 171.517 193.584 172.784 195.317C174.051 197.017 175.951 197.867 178.484 197.867ZM204.572 180.317C203.239 180.317 202.006 180.017 200.872 179.417C199.772 178.784 198.889 177.934 198.222 176.867C197.556 175.767 197.222 174.551 197.222 173.217C197.222 171.851 197.556 170.634 198.222 169.567C198.889 168.501 199.772 167.667 200.872 167.067C202.006 166.434 203.239 166.117 204.572 166.117C205.939 166.117 207.172 166.434 208.272 167.067C209.372 167.667 210.256 168.501 210.922 169.567C211.589 170.634 211.922 171.851 211.922 173.217C211.922 174.551 211.589 175.767 210.922 176.867C210.256 177.934 209.372 178.784 208.272 179.417C207.172 180.017 205.939 180.317 204.572 180.317ZM204.572 177.017C205.706 177.017 206.622 176.667 207.322 175.967C208.022 175.267 208.372 174.351 208.372 173.217C208.372 172.084 208.022 171.167 207.322 170.467C206.622 169.767 205.706 169.417 204.572 169.417C203.439 169.417 202.522 169.767 201.822 170.467C201.122 171.167 200.772 172.084 200.772 173.217C200.772 174.351 201.122 175.267 201.822 175.967C202.522 176.667 203.439 177.017 204.572 177.017Z" fill="#F5F5F5"/>
</g>
</svg>
